<?xml version="1.0" encoding="utf-8"?>
<!-- Generator: Adobe Illustrator 16.0.0, SVG Export Plug-In . SVG Version: 6.00 Build 0)  -->
<!DOCTYPE svg PUBLIC "-//W3C//DTD SVG 1.1//EN" "http://www.w3.org/Graphics/SVG/1.1/DTD/svg11.dtd">
<svg version="1.1" id="Layer_1" xmlns="http://www.w3.org/2000/svg" xmlns:xlink="http://www.w3.org/1999/xlink" x="0px" y="0px"
	 width="779px" height="320px" viewBox="42.445 145.14 779 320" enable-background="new 42.445 145.14 779 320"
	 xml:space="preserve">
<g>
	<g>
		<path fill="#004B93" d="M385.864,241.797l14.053-46.893l14.229,46.893H385.864z M422.178,186.729
			c-2.848-8.44-4.444-10.425-12.491-10.425h-19.64l-31.439,102.749h16.012l6.753-22.131h37.346l6.789,22.131h27.852L422.178,186.729
			z"/>
		<path fill="#004B93" d="M233.219,265.353v-75.682h13.203c6.366,0,11.846,5.246,11.846,11.583c0,2.231-0.416,4.314-2.593,7.44
			l-8.555,12.84c8.954,2.148,14.938,8.967,14.938,21.716c0,15.502-9.271,22.104-21.53,22.104L233.219,265.353L233.219,265.353z
			 M266.461,216.567l5.041-7.436c10.601-15.751,3.307-32.851-17.676-32.851h-44.795v102.805h43.198
			C290.22,279.086,301.593,234.839,266.461,216.567"/>
		<path fill="#004B93" d="M153.548,265.353h-7.249v-75.682h13.137c6.374,0,11.901,5.246,11.901,11.583
			c0,2.231-0.409,4.314-2.623,7.44l-8.609,12.84c8.984,2.148,14.962,8.967,14.962,21.716
			C175.066,258.752,165.809,265.353,153.548,265.353 M179.476,216.567l5.004-7.436c10.651-15.751,3.36-32.851-17.685-32.851h-44.736
			v102.805h43.207C203.212,279.086,214.694,234.839,179.476,216.567"/>
		<path fill="#004B93" d="M311.664,189.671c-3.656-11.58-5.514-13.39-12.535-13.39h-18.137l33.621,102.772h24.697l31.317-102.771
			h-16.26l-23.191,78.06L311.664,189.671z"/>
		<path fill="#004B93" d="M122.059,176.282h43.207"/>
	</g>
	<g>
		<path fill="#004B93" d="M122.059,433.253V332.242v-1.791h29.809c5.072,0,9.892,0.438,14.202,1.642l0,0
			c4.3,1.087,8.174,2.948,11.301,5.649l0,0c2.115,1.752,3.855,3.969,5.127,6.633l0,0c1.72,3.437,2.633,7.677,2.633,12.558l0,0
			c0,5.296-1.173,9.55-3.252,13.003l0,0c-2.025,3.4-5.031,5.872-8.345,7.758l0,0c-0.71,0.415-1.434,0.78-2.196,1.111l0,0
			c1.699,0.557,3.319,1.175,4.913,1.967l0,0c3.107,1.43,5.915,3.475,8.135,6.1l0,0c1.487,1.742,2.713,3.746,3.681,6.188l0,0
			c1.221,3.132,1.9,6.791,1.9,11.159l0,0c0,5.641-1.192,10.408-3.416,14.455l0,0c-2.198,3.988-5.366,7.156-9.378,9.438l0,0
			c-2.597,1.539-5.561,2.695-8.867,3.504l0,0c-4.25,1.104-9.029,1.639-14.144,1.639l0,0H122.059L122.059,433.253z M153.964,423.38
			c4.174,0,7.923-0.447,11.225-1.461l0,0c3.251-0.971,6.025-2.445,8.166-4.447l0,0c1.379-1.316,2.551-2.881,3.386-4.691l0,0
			c1.161-2.404,1.806-5.363,1.806-8.871l0,0c0-4.082-0.775-7.287-2.213-9.877l0,0c-1.43-2.59-3.509-4.623-6.322-6.138l0,0
			c-1.835-0.963-3.953-1.804-6.427-2.349l0,0c-3.286-0.811-7.054-1.163-11.301-1.163l0,0h-19.166v38.997H153.964L153.964,423.38z
			 M151.442,374.539c3.68,0,7.021-0.375,10.006-1.149l0,0c3.021-0.824,5.56-2.09,7.502-3.795l0,0
			c1.286-1.127,2.426-2.468,3.225-4.152l0,0c1.091-2.187,1.71-4.851,1.71-8.266l0,0c0-3.812-0.778-6.735-2.105-9.03l0,0
			c-1.374-2.236-3.256-3.869-5.688-5.09l0,0c-1.606-0.885-3.471-1.518-5.489-1.958l0,0c-2.685-0.55-5.679-0.837-8.872-0.837l0,0
			h-18.612v34.277H151.442L151.442,374.539z"/>
		<g>
			<path fill="#004B93" d="M257.939,367.312c-0.942-2.215-2.262-4.104-3.934-5.663c-2.36-2.323-5.438-4.019-9.035-5.038
				c-3.483-0.994-7.491-1.429-11.809-1.429c-14.739,0.081-23.02,4.349-28.403,7.417c3.98,8.417,8.197,6.357,13.646,4.018
				c4.175-1.799,8.998-2.547,14.077-2.547c2.329,0.006,4.898,0.549,7.393,1.061c1.468,0.396,2.795,0.941,3.887,1.582
				c1.779,1.115,3.039,2.476,4.004,4.257c0.941,1.794,1.455,4.155,1.455,7.188v11c-5.569-1.235-11.183-1.793-17.566-1.793
				c-4.476,0-8.575,0.428-12.382,1.328c-2.782,0.693-5.296,1.627-7.713,2.862c-3.438,1.888-6.262,4.44-8.263,7.642
				c-1.977,3.277-2.985,7.119-2.985,11.609c0,3.645,0.646,7.051,1.853,9.936c1.914,4.311,5.19,7.723,9.256,9.908
				c4.135,2.234,8.969,3.35,14.437,3.35c0,0,0,0,0.017,0c6.294,0,11.283-1.172,15.562-3.166c2.916-1.43,5.458-3.166,7.788-5.24
				c0.053,1.006,0.128,1.834,0.25,2.604c0.114,0.836,0.322,1.59,0.699,2.273c0.255,0.508,0.587,1.014,1.028,1.4
				c0.68,0.545,1.454,0.918,2.243,1.104c0.8,0.219,1.724,0.279,2.694,0.279h3.729v-55.547
				C259.863,373.705,259.201,370.283,257.939,367.312z M249.219,414.037c-2.708,3.129-5.569,5.797-8.915,7.627
				c-3.532,1.965-7.792,3.135-13.493,3.135c-2.305,0-4.457-0.264-6.438-0.83c-1.417-0.393-2.678-0.99-3.827-1.732
				c-1.649-1.072-2.977-2.531-3.959-4.48c-0.978-1.984-1.524-4.439-1.524-7.51c0-2.639,0.529-4.695,1.524-6.404
				c0.772-1.307,1.701-2.41,2.91-3.473c1.772-1.459,4.133-2.494,7-3.254c2.761-0.729,5.981-1.078,9.593-1.078
				c6.33,0,11.937,0.828,17.13,1.963V414.037L249.219,414.037z"/>
		</g>
		<path fill="#004B93" d="M328.914,433.253v-55.834c0-3.146-0.447-5.451-1.253-7.185l0,0c-0.791-1.719-1.835-2.864-3.149-3.76l0,0
			c-0.899-0.521-1.958-0.974-3.096-1.274l0,0c-1.625-0.379-3.446-0.527-5.415-0.527l0,0c-5.125,0-10.17,1.398-15.037,3.652l0,0
			c-4.521,2.137-8.906,4.932-12.813,7.912l0,0v57.016h-10.666V355.99h5.062c0.544,0.047,1.044,0.053,1.558,0.115l0,0
			c0.513,0.061,1.042,0.227,1.578,0.533l0,0c0.354,0.203,0.67,0.441,0.913,0.74l0,0c0.379,0.4,0.682,0.896,0.861,1.382l0,0
			c0.229,0.713,0.432,1.469,0.529,2.268l0,0c0.121,1.132,0.164,2.425,0.164,4.099l0,0v0.826c3.536-2.621,7.472-4.953,11.918-6.865
			l0,0c5.607-2.391,11.834-3.904,18.69-3.904l0,0c3.056,0,5.994,0.328,8.732,1.199l0,0c2.716,0.884,5.229,2.337,7.228,4.629l0,0
			c1.326,1.472,2.383,3.291,3.258,5.335l0,0c1.088,2.884,1.667,6.261,1.667,10.305l0,0v56.603H328.914L328.914,433.253z"/>
		<path fill="#004B93" d="M436.081,427.841c-5.724-3.979-10.081-9.787-12.59-17.02l0,0c-1.702-4.861-2.592-10.281-2.592-16.283l0,0
			c0-8.898,2.008-16.709,5.695-23l0,0c3.692-6.265,9.09-10.944,15.683-13.717l0,0c4.438-1.746,9.312-2.64,14.671-2.64l0,0
			c8.026-0.03,15.164,2.062,20.877,6.12l0,0c5.761,3.916,10.086,9.729,12.653,17.002l0,0c1.659,4.789,2.522,10.286,2.522,16.232l0,0
			c0,8.965-1.955,16.789-5.712,23.021l0,0c-3.641,6.232-9.049,10.893-15.623,13.574l0,0c-4.47,1.773-9.41,2.742-14.719,2.742l0,0
			l0,0l0,0C448.967,433.876,441.859,431.746,436.081,427.841L436.081,427.841z M442.043,368.802
			c-3.906,2.912-6.878,7.195-8.646,12.773l0,0c-1.192,3.77-1.789,8.09-1.789,12.963l0,0c0,7.418,1.396,13.457,3.909,18.168l0,0
			c2.579,4.686,6.182,8.043,10.777,9.973l0,0c3.084,1.311,6.633,2.01,10.653,2.01l0,0c5.949,0,10.927-1.539,14.873-4.416l0,0
			c3.889-2.881,6.833-7.07,8.636-12.707l0,0c1.139-3.725,1.76-8.107,1.76-13.027l0,0l0,0c0-7.265-1.385-13.354-3.976-18.043l0,0
			c-2.503-4.766-6.094-8.17-10.736-10.199l0,0c-3.038-1.319-6.608-1.993-10.557-1.993l0,0
			C450.944,364.302,445.956,365.826,442.043,368.802L442.043,368.802z"/>
		<path fill="#004B93" d="M600.567,433.253v-56.32c0-2.955-0.381-5.131-1.038-6.82l0,0c-0.688-1.65-1.568-2.75-2.759-3.619l0,0
			c-0.829-0.519-1.781-0.965-2.881-1.273l0,0c-1.464-0.37-3.232-0.545-5.249-0.545l0,0c-4.882,0-9.339,1.33-13.555,3.438l0,0
			c-3.932,2-7.67,4.635-11.215,7.467l0,0v57.676h-10.684v-56.32c0-2.924-0.413-5.118-1.127-6.82l0,0
			c-0.69-1.619-1.626-2.74-2.83-3.619l0,0c-0.806-0.519-1.716-0.965-2.822-1.273l0,0c-1.454-0.37-3.12-0.545-4.978-0.545l0,0
			c-5.1,0-9.571,1.314-13.812,3.423l0,0c-3.979,1.991-7.689,4.649-11.294,7.565l0,0v57.59h-10.63v-77.262h5.03
			c0.526,0.045,1.038,0.051,1.589,0.114l0,0c0.556,0.062,1.055,0.228,1.625,0.533l0,0c0.341,0.155,0.65,0.442,0.911,0.741l0,0
			c0.422,0.4,0.684,0.896,0.879,1.381l0,0c0.204,0.713,0.365,1.469,0.427,2.287l0,0c0.152,1.111,0.169,2.419,0.169,4.078l0,0v0.147
			c2.983-2.144,6.425-4.274,10.216-6.092l0,0c5.105-2.39,10.983-4,17.407-4l0,0c3.188,0,6.308,0.444,9.14,1.61l0,0
			c2.895,1.16,5.446,3.092,7.357,5.648l0,0c0.76,1.068,1.422,2.293,1.945,3.619l0,0c3.413-2.672,7.265-5.094,11.58-7.077l0,0
			c5.171-2.307,10.993-3.802,17.215-3.802l0,0c2.995,0,5.885,0.387,8.524,1.29l0,0c2.576,0.919,4.975,2.442,6.876,4.556l0,0
			c1.255,1.377,2.307,3.047,3.073,4.961l0,0c0.975,2.604,1.506,5.535,1.506,8.967l0,0v58.297H600.567L600.567,433.253z"/>
		<path fill="#004B93" d="M413.105,363.167c-3.985,8.416-7.793,5.654-13.231,3.309l0,0c-2.899-1.225-6.705-2.062-11.696-2.062l0,0
			c-5.878,0.016-10.885,1.543-14.902,4.44l0,0c-4.041,2.886-7.12,7.126-8.942,12.675l0,0c-1.265,3.725-1.956,7.992-1.956,12.868l0,0
			c0,5.517,0.817,10.366,2.266,14.403l0,0c1.514,4.07,3.638,7.303,6.354,9.797l0,0c1.854,1.674,3.901,2.988,6.25,3.975l0,0
			c3.188,1.309,6.753,1.973,10.934,1.973l0,0c5.468,0,9.648-1.215,12.812-2.758c5.266-2.727,8.876-5.838,13.443,2.279
			c-1.936,1.84-5.187,4.348-8.653,6.002c-0.519,0.24-1.055,0.475-1.613,0.705c-4.292,1.793-9.739,3.104-16.343,3.104l0,0
			c-0.026,0-0.026,0-0.026,0l0,0c-8.393,0-15.573-2.17-21.359-6.131l0,0c-5.772-4.051-9.987-9.855-12.441-17.145l0,0
			c-1.602-4.836-2.414-10.318-2.414-16.204l0,0c-0.016-9.011,2.063-16.832,5.883-23.067l0,0c3.803-6.203,9.349-10.816,16.049-13.539
			l0,0c4.441-1.715,9.446-2.607,14.774-2.607l0,0C391.343,355.324,402.241,354.344,413.105,363.167z"/>
		<g>
			<path fill="#004B93" d="M687.405,375.335c-1.115-3.416-2.641-6.401-4.552-9.01c-2.839-3.783-6.487-6.604-10.763-8.535
				c-4.28-1.754-9.193-2.607-14.397-2.607c-4.971,0-9.603,0.923-13.833,2.771c-6.217,2.778-11.464,7.508-15.083,13.849
				c-3.578,6.289-5.562,14.092-5.562,23.049c0,5.797,0.762,11.192,2.343,16.005c2.352,7.168,6.484,12.953,12.258,16.934
				c5.709,3.947,13.078,6.088,21.674,6.088c0,0,0,0,0.019,0c6.891,0,12.479-1.117,17.043-2.742c7.304-2.75,11.038-6.113,12.85-8.08
				c-4.982-7.244-7.816-4.35-13.567-1.682c-3.368,1.67-9.836,3.076-15.64,3.076c-4.448,0-8.298-0.656-11.505-1.893
				c-2.43-0.908-4.551-2.17-6.369-3.773c-2.678-2.395-4.817-5.496-6.187-9.496c-1.277-3.545-1.983-7.756-2.111-12.668h55.584v-1.75
				c0-0.019,0-0.215,0-0.465c0.007-0.646,0.089-1.855,0.089-3.023C689.693,385.253,688.943,379.939,687.405,375.335z
				 M634.32,387.638c0.48-3.543,1.297-6.633,2.418-9.387c2.004-4.779,4.855-8.277,8.354-10.596
				c3.568-2.382,7.731-3.521,12.601-3.521c3.211,0,6.185,0.432,8.704,1.328c1.877,0.701,3.602,1.642,5.103,2.941
				c2.237,1.898,4.021,4.414,5.346,7.918c1.091,3.062,1.876,6.74,2.137,11.315L634.32,387.638L634.32,387.638z"/>
		</g>
		<path fill="#004B93" d="M735.151,355.484c-5.64-0.014-10.614,1.734-14.879,4.387l0,0c-2.785,1.705-5.298,3.779-7.523,5.987l0,0
			l0,0c0-1.851-0.041-3.291-0.216-4.468l0,0c-0.058-0.925-0.195-1.672-0.448-2.418l0,0c-0.188-0.486-0.422-0.988-0.812-1.473l0,0
			c-0.275-0.281-0.58-0.562-0.92-0.773l0,0c-0.516-0.324-1.062-0.527-1.648-0.591l0,0c-0.491-0.063-0.994-0.072-1.529-0.115h-5.089
			v77.259l0,0h10.664v-55.447l0,0c3.738-4.416,7.202-7.157,9.578-8.651c0.078-0.05,0.16-0.097,0.237-0.149
			c4.315-2.726,7.768-3.481,10.514-3.744c4.945-0.474,8.261-1.125,8.752-8.828C739.846,355.869,737.565,355.507,735.151,355.484z"/>
	</g>
</g>
</svg>
